<svg id="forward" width="21" height="16" viewBox="0 0 21 16" fill="none" xmlns="http://www.w3.org/2000/svg">
<path d="M2.10744 0.208738L9.50024 5.94641V1.01373C9.50026 0.824606 9.55246 0.639255 9.65094 0.478629C9.74942 0.318002 9.89026 0.188505 10.0575 0.104774C10.2248 0.0210425 10.4118 -0.0135852 10.5975 0.00480471C10.7832 0.0231946 10.9601 0.0938686 11.1082 0.208839L20.1084 7.19425C20.2302 7.28899 20.3289 7.41086 20.3968 7.55044C20.4647 7.69002 20.5 7.84356 20.5 7.9992C20.5 8.15483 20.4647 8.30838 20.3968 8.44796C20.3289 8.58753 20.2302 8.70941 20.1084 8.80414L11.1082 15.7907C10.96 15.9053 10.7831 15.9757 10.5976 15.994C10.412 16.0122 10.2251 15.9775 10.058 15.8938C9.89082 15.8101 9.75003 15.6808 9.65149 15.5204C9.55295 15.3599 9.50056 15.1748 9.50024 14.9858V10.0524L2.10844 15.7908C1.96032 15.9059 1.78337 15.9767 1.59761 15.9952C1.41186 16.0136 1.22472 15.979 1.05736 15.8953C0.889994 15.8115 0.749094 15.6819 0.650595 15.5212C0.552095 15.3605 0.499931 15.175 0.5 14.9858V1.01373C0.50045 0.824843 0.552887 0.63983 0.651413 0.479511C0.749939 0.319192 0.890642 0.189932 1.05769 0.106276C1.22474 0.0226202 1.4115 -0.0121112 1.59695 0.00599059C1.78241 0.0240924 1.95921 0.094309 2.10744 0.208738Z" fill="#fff"/>
</svg>
